<mxfile host="app.diagrams.net" modified="2021-06-15T15:44:00.180Z" agent="5.0 (Windows NT 10.0; Win64; x64) AppleWebKit/537.36 (KHTML, like Gecko) Chrome/91.0.4472.101 Safari/537.36" etag="7uuRqX0gzJn02FoDNpi7" version="14.7.8" type="github">
  <diagram id="3uLrxowiQ7768kN6MSYw" name="Page-1">
    <mxGraphModel dx="2062" dy="1122" grid="1" gridSize="10" guides="1" tooltips="1" connect="1" arrows="1" fold="1" page="1" pageScale="1" pageWidth="827" pageHeight="1169" math="0" shadow="0">
      <root>
        <mxCell id="0" />
        <mxCell id="1" parent="0" />
        <mxCell id="LGKICbTivIfCBHvwK8SZ-1" value="" style="rounded=1;whiteSpace=wrap;html=1;fillColor=#006666;glass=1;shadow=1;" vertex="1" parent="1">
          <mxGeometry x="99" y="80" width="630" height="300" as="geometry" />
        </mxCell>
        <mxCell id="LGKICbTivIfCBHvwK8SZ-2" value="" style="rounded=1;whiteSpace=wrap;html=1;fillColor=#0000CC;strokeColor=#432D57;fontColor=#ffffff;glass=1;shadow=1;sketch=1;" vertex="1" parent="1">
          <mxGeometry x="164" y="130" width="500" height="200" as="geometry" />
        </mxCell>
        <mxCell id="LGKICbTivIfCBHvwK8SZ-3" value="Welcome" style="rounded=1;whiteSpace=wrap;html=1;fontFamily=Lucida Console;fillColor=#008a00;strokeColor=#005700;fontColor=#ffffff;dashed=1;dashPattern=1 4;gradientColor=#3399FF;gradientDirection=west;shadow=1;glass=1;" vertex="1" parent="1">
          <mxGeometry x="354" y="200" width="120" height="60" as="geometry" />
        </mxCell>
      </root>
    </mxGraphModel>
  </diagram>
</mxfile>
